name p13_grf_mean_speed_1.4
datacolumns 13
datarows 51
range 0.0000000000 0.5000000000
endheader
time	grf_x_l_mean	grf_x_l_var	grf_y_l_mean	grf_y_l_var	grf_z_l_mean	grf_z_l_var	grf_x_r_mean	grf_x_r_var	grf_y_r_mean	grf_y_r_var	grf_z_r_mean	grf_z_r_var
0.0000000000	159.5897835649	1.0000000000	1031.9511310186	1.0000000000	0.0000000000	0.0000000000	12.1825915873	1.0000000000	11.0232608748	1.0000000000	0.0000000000	0.0000000000
0.0100000000	176.6235786714	1.0000000000	1038.5412435038	1.0000000000	0.0000000000	0.0000000000	19.6931819264	1.0000000000	44.0158010926	1.0000000000	0.0000000000	0.0000000000
0.0200000000	193.9667392045	1.0000000000	1033.3264275819	1.0000000000	0.0000000000	0.0000000000	25.3042231479	1.0000000000	97.3547136589	1.0000000000	0.0000000000	0.0000000000
0.0300000000	211.1872409524	1.0000000000	1014.2917032405	1.0000000000	0.0000000000	0.0000000000	22.4827956292	1.0000000000	167.4869163639	1.0000000000	0.0000000000	0.0000000000
0.0400000000	226.9371760107	1.0000000000	979.6299608577	1.0000000000	0.0000000000	0.0000000000	5.9821301847	1.0000000000	246.3168896722	1.0000000000	0.0000000000	0.0000000000
0.0500000000	239.1053995949	1.0000000000	927.7655544490	1.0000000000	0.0000000000	0.0000000000	-19.8503379032	1.0000000000	329.7342996645	1.0000000000	0.0000000000	0.0000000000
0.0600000000	247.2051053510	1.0000000000	858.6190221297	1.0000000000	0.0000000000	0.0000000000	-47.1166970213	1.0000000000	417.7364406379	1.0000000000	0.0000000000	0.0000000000
0.0700000000	248.5184448645	1.0000000000	773.0749676337	1.0000000000	0.0000000000	0.0000000000	-73.3618469891	1.0000000000	507.0348929814	1.0000000000	0.0000000000	0.0000000000
0.0800000000	239.8182199749	1.0000000000	671.7009634033	1.0000000000	0.0000000000	0.0000000000	-99.3942767190	1.0000000000	590.4672281006	1.0000000000	0.0000000000	0.0000000000
0.0900000000	220.1651377747	1.0000000000	557.6245402759	1.0000000000	0.0000000000	0.0000000000	-123.4396943133	1.0000000000	663.2779722663	1.0000000000	0.0000000000	0.0000000000
0.1000000000	189.5448215083	1.0000000000	438.7736518501	1.0000000000	0.0000000000	0.0000000000	-144.0400179841	1.0000000000	723.7623709052	1.0000000000	0.0000000000	0.0000000000
0.1100000000	149.6880532296	1.0000000000	323.7369427490	1.0000000000	0.0000000000	0.0000000000	-160.7631168430	1.0000000000	770.0979671754	1.0000000000	0.0000000000	0.0000000000
0.1200000000	106.7726189622	1.0000000000	220.0834967117	1.0000000000	0.0000000000	0.0000000000	-173.8339802980	1.0000000000	803.9186628645	1.0000000000	0.0000000000	0.0000000000
0.1300000000	66.6638729615	1.0000000000	135.9351368287	1.0000000000	0.0000000000	0.0000000000	-182.9871314996	1.0000000000	833.3868983200	1.0000000000	0.0000000000	0.0000000000
0.1400000000	34.5735063825	1.0000000000	75.7798000660	1.0000000000	0.0000000000	0.0000000000	-188.2151870091	1.0000000000	865.8873690400	1.0000000000	0.0000000000	0.0000000000
0.1500000000	13.9752695770	1.0000000000	36.3451679614	1.0000000000	0.0000000000	0.0000000000	-188.8391884207	1.0000000000	900.1690485707	1.0000000000	0.0000000000	0.0000000000
0.1600000000	2.9901753412	1.0000000000	12.2062044654	1.0000000000	0.0000000000	0.0000000000	-184.2379053999	1.0000000000	930.3949166443	1.0000000000	0.0000000000	0.0000000000
0.1700000000	-2.0681453069	1.0000000000	0.1661147574	1.0000000000	0.0000000000	0.0000000000	-175.9172450051	1.0000000000	954.0391867829	1.0000000000	0.0000000000	0.0000000000
0.1800000000	0.0000000000	1.0000000000	0.0000000000	1.0000000000	0.0000000000	0.0000000000	-164.7816082743	1.0000000000	970.9023695953	1.0000000000	0.0000000000	0.0000000000
0.1900000000	0.0000000000	1.0000000000	0.0000000000	1.0000000000	0.0000000000	0.0000000000	-151.6011102631	1.0000000000	979.3052832533	1.0000000000	0.0000000000	0.0000000000
0.2000000000	0.0000000000	1.0000000000	0.0000000000	1.0000000000	0.0000000000	0.0000000000	-137.0922506432	1.0000000000	977.6578206308	1.0000000000	0.0000000000	0.0000000000
0.2100000000	0.0000000000	1.0000000000	0.0000000000	1.0000000000	0.0000000000	0.0000000000	-121.7891070195	1.0000000000	966.5490794954	1.0000000000	0.0000000000	0.0000000000
0.2200000000	0.0000000000	1.0000000000	0.0000000000	1.0000000000	0.0000000000	0.0000000000	-105.9938523272	1.0000000000	946.1278035403	1.0000000000	0.0000000000	0.0000000000
0.2300000000	1.1787593667	1.0000000000	0.0280641294	1.0000000000	0.0000000000	0.0000000000	-91.0940237849	1.0000000000	915.4470758311	1.0000000000	0.0000000000	0.0000000000
0.2400000000	1.5036787116	1.0000000000	0.4750909055	1.0000000000	0.0000000000	0.0000000000	-77.1806612152	1.0000000000	875.4025917236	1.0000000000	0.0000000000	0.0000000000
0.2500000000	2.6359429516	1.0000000000	1.1643507468	1.0000000000	0.0000000000	0.0000000000	-64.4954318142	1.0000000000	829.0540530497	1.0000000000	0.0000000000	0.0000000000
0.2600000000	2.9930874987	1.0000000000	1.3372798311	1.0000000000	0.0000000000	0.0000000000	-53.0580885414	1.0000000000	779.3114831179	1.0000000000	0.0000000000	0.0000000000
0.2700000000	2.5796135696	1.0000000000	0.8334509393	1.0000000000	0.0000000000	0.0000000000	-42.8557076754	1.0000000000	728.9395224171	1.0000000000	0.0000000000	0.0000000000
0.2800000000	2.7110892600	1.0000000000	0.7687050635	1.0000000000	0.0000000000	0.0000000000	-33.8857516945	1.0000000000	681.5206517969	1.0000000000	0.0000000000	0.0000000000
0.2900000000	2.9546240908	1.0000000000	1.0983579556	1.0000000000	0.0000000000	0.0000000000	-26.5417307771	1.0000000000	639.8542944473	1.0000000000	0.0000000000	0.0000000000
0.3000000000	2.4832552912	1.0000000000	0.5928415979	1.0000000000	0.0000000000	0.0000000000	-20.2915657737	1.0000000000	604.3748867883	1.0000000000	0.0000000000	0.0000000000
0.3100000000	0.0000000000	1.0000000000	0.0000000000	1.0000000000	0.0000000000	0.0000000000	-14.6884155458	1.0000000000	575.0311266249	1.0000000000	0.0000000000	0.0000000000
0.3200000000	0.0000000000	1.0000000000	0.0000000000	1.0000000000	0.0000000000	0.0000000000	-10.3525920557	1.0000000000	553.2028599013	1.0000000000	0.0000000000	0.0000000000
0.3300000000	0.0000000000	1.0000000000	0.0000000000	1.0000000000	0.0000000000	0.0000000000	-6.7736621663	1.0000000000	539.7104746816	1.0000000000	0.0000000000	0.0000000000
0.3400000000	0.0000000000	1.0000000000	0.0000000000	1.0000000000	0.0000000000	0.0000000000	-2.8345601570	1.0000000000	533.2414416938	1.0000000000	0.0000000000	0.0000000000
0.3500000000	0.0000000000	1.0000000000	0.0000000000	1.0000000000	0.0000000000	0.0000000000	1.3631759703	1.0000000000	532.9123910723	1.0000000000	0.0000000000	0.0000000000
0.3600000000	0.0000000000	1.0000000000	0.0000000000	1.0000000000	0.0000000000	0.0000000000	5.5981294663	1.0000000000	539.4433802342	1.0000000000	0.0000000000	0.0000000000
0.3700000000	0.0000000000	1.0000000000	0.0000000000	1.0000000000	0.0000000000	0.0000000000	10.7254656025	1.0000000000	552.9282870019	1.0000000000	0.0000000000	0.0000000000
0.3800000000	0.0000000000	1.0000000000	0.0000000000	1.0000000000	0.0000000000	0.0000000000	16.5505080084	1.0000000000	572.5922725347	1.0000000000	0.0000000000	0.0000000000
0.3900000000	0.0000000000	1.0000000000	0.0000000000	1.0000000000	0.0000000000	0.0000000000	22.8102351393	1.0000000000	598.4084242269	1.0000000000	0.0000000000	0.0000000000
0.4000000000	1.3658812672	1.0000000000	0.2712777225	1.0000000000	0.0000000000	0.0000000000	30.1736883704	1.0000000000	630.5673418886	1.0000000000	0.0000000000	0.0000000000
0.4100000000	1.2658822977	1.0000000000	0.2842430356	1.0000000000	0.0000000000	0.0000000000	38.8743829046	1.0000000000	668.2608350274	1.0000000000	0.0000000000	0.0000000000
0.4200000000	0.0000000000	1.0000000000	0.0000000000	1.0000000000	0.0000000000	0.0000000000	48.4917262834	1.0000000000	710.1700669545	1.0000000000	0.0000000000	0.0000000000
0.4300000000	0.0000000000	1.0000000000	0.0000000000	1.0000000000	0.0000000000	0.0000000000	59.8164912788	1.0000000000	754.6264680004	1.0000000000	0.0000000000	0.0000000000
0.4400000000	0.0000000000	1.0000000000	0.0000000000	1.0000000000	0.0000000000	0.0000000000	72.9306822852	1.0000000000	799.2885801602	1.0000000000	0.0000000000	0.0000000000
0.4500000000	0.0000000000	1.0000000000	0.0000000000	1.0000000000	0.0000000000	0.0000000000	86.5949825488	1.0000000000	841.8754813599	1.0000000000	0.0000000000	0.0000000000
0.4600000000	0.0000000000	1.0000000000	0.0000000000	1.0000000000	0.0000000000	0.0000000000	100.3498388364	1.0000000000	880.8984003049	1.0000000000	0.0000000000	0.0000000000
0.4700000000	0.0000000000	1.0000000000	0.0000000000	1.0000000000	0.0000000000	0.0000000000	114.4397158258	1.0000000000	915.0161929073	1.0000000000	0.0000000000	0.0000000000
0.4800000000	0.0000000000	1.0000000000	0.0000000000	1.0000000000	0.0000000000	0.0000000000	128.3515488393	1.0000000000	942.4860775992	1.0000000000	0.0000000000	0.0000000000
0.4900000000	9.2610516572	1.0000000000	9.6787811919	1.0000000000	0.0000000000	0.0000000000	142.1426949308	1.0000000000	962.0549095881	1.0000000000	0.0000000000	0.0000000000
0.5000000000	15.5436200299	1.0000000000	43.4507738065	1.0000000000	0.0000000000	0.0000000000	156.6868392435	1.0000000000	973.2728472887	1.0000000000	0.0000000000	0.0000000000
